<svg width="22" height="22" viewBox="0 0 22 22" fill="none" xmlns="http://www.w3.org/2000/svg">
<path d="M10.07 22C11.7302 22 13.1189 20.8165 13.4378 19.25H6.70215C7.02123 20.8165 8.40999 22 10.07 22Z" fill="#484848"/>
<path d="M18.7126 16.9606L18.7127 16.9604C18.7975 16.5512 18.6542 16.1452 18.3338 15.8757C17.0097 14.7657 16.2002 13.1815 16.0285 11.485C12.4275 11.2487 9.56953 8.24399 9.56953 4.58337C9.56953 3.79464 9.70586 3.03884 9.95128 2.33453C6.73824 2.39752 4.15291 5.02173 4.15291 8.24999V10.8056C4.15291 12.7669 3.29333 14.6184 1.78771 15.8918C1.46909 16.1645 1.32651 16.5982 1.44226 17.0266L18.7126 16.9606ZM18.7126 16.9606C18.6104 17.4544 18.1132 17.8334 17.5266 17.8334H2.6079C2.04874 17.8334 1.56774 17.4895 1.44231 17.0268L18.7126 16.9606Z" stroke="#484848"/>
<path d="M21.069 4.58339C21.069 7.11469 19.017 9.16661 16.4856 9.16661C13.9543 9.16661 11.9023 7.11469 11.9023 4.58339C11.9023 2.05209 13.9543 0 16.4856 0C19.017 0 21.069 2.05209 21.069 4.58339Z" fill="#EF4358"/>
</svg>
